<svg viewBox="0 0 149 32" fill="none" xmlns="http://www.w3.org/2000/svg">
  <path
    d="M43.5622 24.0382C42.5071 24.0382 41.5614 23.793 40.7251 23.2983C39.8889 22.8036 39.2278 22.1337 38.7418 21.2843C38.2559 20.435 38.0063 19.4762 37.9932 18.4079V9.16997C37.9932 8.85912 38.0895 8.60956 38.2865 8.4213C38.4835 8.23304 38.7287 8.13672 39.0264 8.13672C39.3373 8.13672 39.5868 8.23304 39.7751 8.4213C39.9633 8.60956 40.0597 8.85912 40.0597 9.16997V14.6383C40.5325 14.0691 41.1017 13.6226 41.7715 13.2898C42.4414 12.9571 43.1725 12.7951 43.9694 12.7951C44.9544 12.7951 45.8388 13.0403 46.6225 13.535C47.4062 14.0297 48.0235 14.6952 48.4745 15.5402C48.9254 16.3852 49.1531 17.3396 49.1531 18.4079C49.1531 19.4762 48.9079 20.435 48.4132 21.2843C47.9185 22.1337 47.253 22.8079 46.4168 23.2983C45.5849 23.793 44.6305 24.0382 43.5622 24.0382ZM43.5622 22.2125C44.2496 22.2125 44.8669 22.0461 45.4054 21.7178C45.9439 21.385 46.373 20.9297 46.6926 20.3518C47.0078 19.7695 47.1698 19.1215 47.1698 18.4079C47.1698 17.6767 47.0122 17.0288 46.6926 16.464C46.373 15.8948 45.9483 15.4483 45.4054 15.1155C44.8669 14.7828 44.2496 14.6208 43.5622 14.6208C42.888 14.6208 42.275 14.7871 41.7277 15.1155C41.1805 15.4483 40.7514 15.8948 40.4406 16.464C40.1297 17.0331 39.9765 17.6811 39.9765 18.4079C39.9765 19.1259 40.1297 19.7739 40.4406 20.3518C40.7514 20.9341 41.1805 21.3894 41.7277 21.7178C42.2794 22.0505 42.888 22.2125 43.5622 22.2125Z"
    fill="#191D44" />
  <path
    d="M56.8458 24.0395C55.7513 24.0395 54.7837 23.7987 53.9475 23.3215C53.1112 22.8399 52.4501 22.1788 51.9729 21.3382C51.4913 20.4932 51.2549 19.5256 51.2549 18.4311C51.2549 17.3234 51.4957 16.3471 51.9729 15.5021C52.4501 14.6571 53.1112 13.996 53.9475 13.5188C54.7837 13.0372 55.7513 12.8008 56.8458 12.8008C57.9272 12.8008 58.886 13.0416 59.7223 13.5188C60.5585 14.0004 61.2196 14.6615 61.6968 15.5021C62.174 16.3471 62.4148 17.3234 62.4148 18.4311C62.4148 19.5256 62.1784 20.4932 61.7056 21.3382C61.2327 22.1832 60.576 22.8443 59.7398 23.3215C58.9035 23.7987 57.9403 24.0395 56.8458 24.0395ZM56.8458 22.2138C57.5463 22.2138 58.168 22.0518 58.7109 21.7279C59.2494 21.4039 59.6741 20.9573 59.9762 20.3925C60.2783 19.8234 60.4315 19.171 60.4315 18.4267C60.4315 17.6824 60.2783 17.0257 59.9762 16.4522C59.6741 15.8786 59.2494 15.4277 58.7109 15.1037C58.1724 14.7797 57.5507 14.6177 56.8458 14.6177C56.1453 14.6177 55.5236 14.7797 54.9807 15.1037C54.4422 15.4277 54.0131 15.8786 53.7023 16.4522C53.3914 17.0257 53.2382 17.6868 53.2382 18.4267C53.2382 19.171 53.3914 19.8234 53.7023 20.3925C54.0131 20.9617 54.4378 21.4039 54.9807 21.7279C55.5192 22.0518 56.1409 22.2138 56.8458 22.2138Z"
    fill="#191D44" />
  <path
    d="M70.0724 24.0395C68.9778 24.0395 68.0102 23.7987 67.174 23.3215C66.3378 22.8399 65.6767 22.1788 65.1995 21.3382C64.7179 20.4932 64.4814 19.5256 64.4814 18.4311C64.4814 17.3234 64.7222 16.3471 65.1995 15.5021C65.6767 14.6571 66.3378 13.996 67.174 13.5188C68.0102 13.0372 68.9778 12.8008 70.0724 12.8008C71.1538 12.8008 72.1126 13.0416 72.9488 13.5188C73.785 14.0004 74.4461 14.6615 74.9234 15.5021C75.4006 16.3471 75.6414 17.3234 75.6414 18.4311C75.6414 19.5256 75.405 20.4932 74.9321 21.3382C74.4593 22.1832 73.8026 22.8443 72.9663 23.3215C72.1301 23.7987 71.1669 24.0395 70.0724 24.0395ZM70.0724 22.2138C70.7729 22.2138 71.3946 22.0518 71.9375 21.7279C72.476 21.4039 72.9007 20.9573 73.2027 20.3925C73.5048 19.8234 73.6581 19.171 73.6581 18.4267C73.6581 17.6824 73.5048 17.0257 73.2027 16.4522C72.9007 15.8786 72.476 15.4277 71.9375 15.1037C71.3989 14.7797 70.7772 14.6177 70.0724 14.6177C69.3719 14.6177 68.7502 14.7797 68.2073 15.1037C67.6687 15.4277 67.2397 15.8786 66.9288 16.4522C66.618 17.0257 66.4648 17.6868 66.4648 18.4267C66.4648 19.171 66.618 19.8234 66.9288 20.3925C67.2397 20.9617 67.6644 21.4039 68.2073 21.7279C68.7458 22.0518 69.3675 22.2138 70.0724 22.2138Z"
    fill="#191D44" />
  <path
    d="M78.8981 23.955C78.6004 23.955 78.3596 23.8631 78.1801 23.6836C77.9962 23.4997 77.9043 23.2633 77.9043 22.9656V9.12618C77.9043 8.82847 77.9962 8.58767 78.1801 8.40817C78.364 8.22428 78.6004 8.13672 78.8981 8.13672C79.1959 8.13672 79.4367 8.22866 79.6162 8.40817C79.8 8.59205 79.8876 8.82847 79.8876 9.12618V22.9656C79.8876 23.2633 79.7957 23.5041 79.6162 23.6836C79.4367 23.8631 79.1959 23.955 78.8981 23.955ZM79.8482 19.9052L78.5917 18.5261L84.813 12.9746C85.0144 12.7863 85.2421 12.6988 85.4917 12.7119C85.7412 12.725 85.9557 12.8345 86.1309 13.0359C86.3191 13.2373 86.4067 13.4606 86.3936 13.7057C86.3804 13.9509 86.271 14.1655 86.0696 14.3537L79.8482 19.9052ZM86.1309 23.8543C85.9163 24.0295 85.6755 24.1083 85.4128 24.0864C85.1502 24.0645 84.9312 23.9463 84.7561 23.7317L80.645 18.6443L82.0636 17.309L86.2797 22.4971C86.4549 22.7116 86.5337 22.948 86.5118 23.1976C86.4855 23.4472 86.3585 23.6661 86.1309 23.8543Z"
    fill="#191D44" />
  <path
    d="M89.1346 15.0197C88.8501 15.0197 88.6224 14.9409 88.4473 14.7745C88.2721 14.6125 88.1846 14.4111 88.1846 14.1659C88.1846 13.8945 88.2721 13.6799 88.4473 13.518C88.6224 13.356 88.8544 13.2728 89.1346 13.2728H94.1389C94.4235 13.2728 94.6511 13.3516 94.8262 13.518C95.0014 13.6799 95.0889 13.8945 95.0889 14.1659C95.0889 14.4111 95.0014 14.6125 94.8262 14.7745C94.6511 14.9365 94.4191 15.0197 94.1389 15.0197H89.1346ZM90.9997 23.9555C90.7414 23.9555 90.5138 23.8592 90.3124 23.6709C90.111 23.4827 90.0103 23.2331 90.0103 22.9223V12.9357C90.0103 11.9637 90.2029 11.1187 90.5882 10.4051C90.9735 9.69144 91.512 9.13103 92.1993 8.73262C92.8867 8.33421 93.6835 8.13281 94.5898 8.13281C94.8875 8.13281 95.1327 8.22038 95.3297 8.3955C95.5268 8.57063 95.6231 8.79392 95.6231 9.06536C95.6231 9.32367 95.5268 9.54258 95.3297 9.72209C95.1327 9.90597 94.8875 9.99353 94.5898 9.99353C94.0907 9.99353 93.6529 10.1074 93.272 10.3394C92.8955 10.5714 92.5978 10.8867 92.392 11.2938C92.1818 11.701 92.0768 12.1782 92.0768 12.7343V22.9266C92.0768 23.2375 91.9804 23.487 91.7922 23.6753C91.5995 23.8636 91.3369 23.9555 90.9997 23.9555Z"
    fill="#191D44" />
  <path
    d="M107.243 13.6615C107.204 13.4601 107.107 13.2894 106.967 13.1449C106.823 13.0004 106.652 12.9085 106.45 12.8691C106.38 12.8603 106.306 12.8516 106.227 12.8516C106.118 12.8516 106.013 12.8647 105.912 12.891C105.846 12.9085 105.785 12.9347 105.728 12.9654C105.641 13.0092 105.557 13.0705 105.487 13.1449C105.343 13.2894 105.251 13.4601 105.211 13.6615C105.203 13.7316 105.194 13.806 105.194 13.8848V18.8672C105.194 19.6246 105.049 20.2507 104.765 20.741C104.485 21.2357 104.099 21.5991 103.613 21.8356C103.162 22.0545 102.655 22.1727 102.09 22.1902C101.508 22.1814 100.982 22.0676 100.509 21.8399C100.023 21.6035 99.6381 21.2401 99.3535 20.7454C99.0689 20.2507 98.9288 19.629 98.9288 18.8715V13.8848C98.9288 13.5871 98.8325 13.3419 98.6355 13.1449C98.4384 12.9479 98.1933 12.8516 97.8956 12.8516C97.5978 12.8516 97.3527 12.9479 97.1556 13.1449C96.9586 13.3419 96.8623 13.5871 96.8623 13.8848V18.8672C96.8623 19.988 97.0768 20.9337 97.5015 21.7042C97.9262 22.4748 98.5085 23.0571 99.244 23.4555C99.9796 23.8539 100.816 24.0553 101.748 24.0553C101.832 24.0553 102.278 24.0553 102.374 24.0553C103.307 24.0553 104.143 23.8583 104.879 23.4555C105.001 23.3898 105.12 23.3198 105.233 23.2366C105.803 22.86 106.267 22.3478 106.621 21.7042C107.046 20.9337 107.26 19.988 107.26 18.8672V13.8848C107.26 13.806 107.252 13.7316 107.243 13.6615Z"
    fill="#191D44" />
  <path
    d="M138.524 23.2453C138.564 23.4467 138.66 23.6175 138.8 23.7619C138.945 23.9064 139.115 23.9984 139.317 24.0378C139.387 24.0465 139.461 24.0553 139.54 24.0553C139.65 24.0553 139.755 24.0421 139.855 24.0159C139.921 23.9984 139.982 23.9721 140.039 23.9415C140.127 23.8977 140.21 23.8364 140.28 23.7619C140.424 23.6175 140.516 23.4467 140.556 23.2453C140.565 23.1753 140.573 23.1008 140.573 23.022V18.0397C140.573 17.2823 140.718 16.6562 141.002 16.1658C141.283 15.6711 141.668 15.3077 142.154 15.0713C142.605 14.8524 143.113 14.7342 143.677 14.7167C144.26 14.7254 144.785 14.8392 145.258 15.0669C145.744 15.3033 146.129 15.6667 146.414 16.1615C146.698 16.6562 146.838 17.2779 146.838 18.0353V23.0177C146.838 23.3154 146.935 23.5606 147.132 23.7576C147.329 23.9546 147.574 24.0509 147.872 24.0509C148.169 24.0509 148.415 23.9546 148.612 23.7576C148.809 23.5606 148.905 23.3154 148.905 23.0177V18.0397C148.905 16.9189 148.69 15.9732 148.266 15.2026C147.841 14.4321 147.259 13.8498 146.523 13.4514C145.788 13.053 144.952 12.8516 144.019 12.8516C143.936 12.8516 143.489 12.8516 143.393 12.8516C142.46 12.8516 141.624 13.0486 140.889 13.4514C140.766 13.517 140.648 13.5871 140.534 13.6703C139.965 14.0468 139.501 14.559 139.146 15.2026C138.721 15.9732 138.507 16.9189 138.507 18.0397V23.022C138.507 23.1008 138.516 23.1753 138.524 23.2453Z"
    fill="#191D44" />
  <path
    d="M114.038 24.04C113.092 24.04 112.217 23.8955 111.416 23.6066C110.61 23.3176 109.988 22.9498 109.542 22.5033C109.34 22.2887 109.253 22.0392 109.288 21.7634C109.323 21.4875 109.454 21.2599 109.682 21.0847C109.953 20.8702 110.22 20.7783 110.483 20.8133C110.746 20.8483 110.973 20.9665 111.162 21.1679C111.389 21.4262 111.761 21.6627 112.265 21.8859C112.773 22.1092 113.333 22.2187 113.955 22.2187C114.739 22.2187 115.334 22.0917 115.75 21.8334C116.162 21.5751 116.376 21.2467 116.389 20.8396C116.402 20.4324 116.21 20.0821 115.811 19.7844C115.413 19.4867 114.686 19.2459 113.635 19.0533C112.269 18.7818 111.28 18.379 110.667 17.8361C110.054 17.2976 109.743 16.6321 109.743 15.8528C109.743 15.1655 109.945 14.5919 110.352 14.141C110.759 13.69 111.275 13.3529 111.91 13.1296C112.545 12.9063 113.206 12.7969 113.898 12.7969C114.791 12.7969 115.579 12.937 116.267 13.2216C116.954 13.5061 117.501 13.8958 117.908 14.3949C118.097 14.6094 118.184 14.8371 118.171 15.0735C118.158 15.3099 118.044 15.507 117.825 15.669C117.611 15.8178 117.352 15.866 117.055 15.8091C116.757 15.7565 116.507 15.6339 116.306 15.4457C115.969 15.1217 115.605 14.8984 115.211 14.7758C114.817 14.6532 114.366 14.5919 113.854 14.5919C113.259 14.5919 112.755 14.6926 112.344 14.894C111.932 15.0954 111.726 15.3931 111.726 15.7872C111.726 16.0323 111.792 16.2512 111.919 16.4439C112.046 16.6409 112.3 16.816 112.676 16.9693C113.053 17.1269 113.609 17.2757 114.336 17.4246C115.347 17.626 116.148 17.8843 116.735 18.1952C117.322 18.506 117.746 18.8694 118 19.2809C118.259 19.6925 118.386 20.1697 118.386 20.7082C118.386 21.3299 118.219 21.8903 117.891 22.3894C117.558 22.8885 117.072 23.287 116.433 23.5847C115.798 23.8911 114.997 24.04 114.038 24.04Z"
    fill="#191D44" />
  <path
    d="M121.822 11.0691C121.458 11.0691 121.143 10.9378 120.88 10.6751C120.618 10.4124 120.486 10.0972 120.486 9.73378C120.486 9.37039 120.618 9.05516 120.88 8.79247C121.143 8.52978 121.458 8.39844 121.822 8.39844C122.185 8.39844 122.5 8.52978 122.763 8.79247C123.026 9.05516 123.157 9.37039 123.157 9.73378C123.157 10.0972 123.026 10.4124 122.763 10.6751C122.5 10.9378 122.189 11.0691 121.822 11.0691ZM121.822 23.9541C121.524 23.9541 121.279 23.8577 121.082 23.6607C120.885 23.4637 120.788 23.2185 120.788 22.9208V13.9062C120.788 13.5953 120.885 13.3458 121.082 13.1575C121.279 12.9692 121.524 12.8729 121.822 12.8729C122.133 12.8729 122.382 12.9692 122.57 13.1575C122.759 13.3458 122.855 13.5953 122.855 13.9062V22.9208C122.855 23.2185 122.759 23.4637 122.57 23.6607C122.382 23.8577 122.133 23.9541 121.822 23.9541Z"
    fill="#191D44" />
  <path
    d="M130.675 24.0395C129.58 24.0395 128.613 23.7987 127.777 23.3215C126.94 22.8399 126.279 22.1788 125.802 21.3382C125.32 20.4932 125.084 19.5256 125.084 18.4311C125.084 17.3234 125.325 16.3471 125.802 15.5021C126.279 14.6571 126.94 13.996 127.777 13.5188C128.613 13.0372 129.58 12.8008 130.675 12.8008C131.756 12.8008 132.715 13.0416 133.551 13.5188C134.388 14.0004 135.049 14.6615 135.526 15.5021C136.003 16.3471 136.244 17.3234 136.244 18.4311C136.244 19.5256 136.008 20.4932 135.535 21.3382C135.062 22.1832 134.405 22.8443 133.569 23.3215C132.733 23.7987 131.765 24.0395 130.675 24.0395ZM130.675 22.2138C131.375 22.2138 131.997 22.0518 132.54 21.7279C133.079 21.4039 133.503 20.9573 133.805 20.3925C134.107 19.8234 134.261 19.171 134.261 18.4267C134.261 17.6824 134.107 17.0257 133.805 16.4522C133.503 15.8786 133.079 15.4277 132.54 15.1037C132.001 14.7797 131.38 14.6177 130.675 14.6177C129.974 14.6177 129.353 14.7797 128.81 15.1037C128.271 15.4277 127.842 15.8786 127.531 16.4522C127.221 17.0257 127.067 17.6868 127.067 18.4267C127.067 19.171 127.221 19.8234 127.531 20.3925C127.842 20.9617 128.267 21.4039 128.81 21.7279C129.348 22.0518 129.97 22.2138 130.675 22.2138Z"
    fill="#191D44" />
  <path
    d="M27.9327 7.79751V24.8636C27.9327 25.6736 27.2716 26.3347 26.4616 26.3347C26.0457 26.3347 25.6779 26.1639 25.4065 25.8925C25.135 25.621 24.9643 25.2533 24.9643 24.8636V7.77124C24.9643 5.14872 22.8803 2.96402 20.2315 2.94213C17.7053 2.91586 15.595 4.87728 15.4505 7.35532V24.2988C15.4505 24.3951 15.4505 24.4696 15.4505 24.5703C15.4505 24.5965 15.4505 24.6447 15.4505 24.6666C15.4505 24.6666 15.4505 24.6666 15.4505 24.6928V24.7191C15.3761 26.2646 14.8376 27.6875 13.9795 28.839C13.9313 28.9134 13.8832 28.9616 13.8306 29.036C13.6336 29.2812 13.4147 29.5263 13.1914 29.7452C11.7948 31.1419 9.83336 32 7.69681 32C3.43248 31.9737 0 28.4449 0 24.2025V7.08387C0 6.27391 0.661103 5.61281 1.47106 5.61281C1.88699 5.61281 2.25475 5.78355 2.5262 6.055C2.79765 6.32645 2.9684 6.69421 2.9684 7.08387V24.1981C2.9684 26.8206 5.0524 29.0053 7.70119 29.0272C10.2274 29.0535 12.3377 27.0921 12.5084 24.614V7.64865C12.5084 7.55233 12.5084 7.45164 12.5084 7.35532C12.5084 7.32905 12.5084 7.30716 12.5084 7.28089C12.5828 5.7354 13.1214 4.31249 13.9795 3.16104C14.0276 3.08661 14.0758 3.03845 14.1283 2.96402C14.3254 2.71884 14.5443 2.47366 14.7675 2.25475C16.1642 0.85812 18.1256 0 20.2621 0C24.5221 0.0218908 27.9327 3.55507 27.9327 7.79751Z"
    fill="#191D44" />
  <path
    d="M12.4824 7.35413C12.4824 7.45045 12.4824 7.55115 12.4824 7.64747V24.6172C12.3117 27.0953 10.2276 29.0567 7.67518 29.0304C5.05266 29.0042 2.94238 26.8238 2.94238 24.2013V7.25781C2.99054 9.56073 4.78121 11.474 7.01408 11.8199V22.3887C6.20412 22.6602 5.63933 23.4176 5.63933 24.3239C5.63933 25.4535 6.57188 26.3816 7.69707 26.3816C8.82664 26.3816 9.75481 25.4754 9.75481 24.3239C9.75481 23.4395 9.19002 22.6821 8.38006 22.3887V11.8418C10.5867 11.5221 12.3029 9.70958 12.4518 7.47672C12.4824 7.42856 12.4824 7.3804 12.4824 7.35413Z"
    fill="url(#paint0_linear)" />
  <path
    d="M24.9381 7.25982C24.9381 7.13723 24.9119 7.04091 24.89 6.91832C24.89 6.87017 24.8637 6.82201 24.8637 6.76947C24.8375 6.67315 24.8156 6.57245 24.7893 6.44986C24.2508 4.44028 22.4338 2.91668 20.2535 2.89479C17.7273 2.86852 15.617 4.82994 15.4463 7.30798V24.2777C15.4463 24.3741 15.4463 24.4748 15.4463 24.5711C15.4463 24.5229 15.4463 24.4967 15.4463 24.4485C15.5951 22.2156 17.3114 20.4031 19.518 20.1097V9.6109C18.708 9.33945 18.1432 8.58203 18.1432 7.67575C18.1432 6.54618 19.0758 5.61801 20.201 5.61801C21.3262 5.61801 22.2587 6.52429 22.2587 7.67575C22.2587 8.56014 21.6939 9.31756 20.884 9.6109V20.1316C23.1387 20.4731 24.9075 22.3864 24.9557 24.6937V7.75018C24.9644 7.60132 24.9644 7.43057 24.9381 7.25982Z"
    fill="url(#paint1_linear)" />
  <defs>
    <linearGradient id="paint0_linear" x1="7.68398" y1="8.43112" x2="7.75893" y2="27.8137"
      gradientUnits="userSpaceOnUse">
      <stop offset="0.1416" stop-color="#2C7AFF" />
      <stop offset="0.8162" stop-color="#00D2FF" />
    </linearGradient>
    <linearGradient id="paint1_linear" x1="20.1753" y1="4.06925" x2="20.2506" y2="23.4752"
      gradientUnits="userSpaceOnUse">
      <stop offset="0.161458" stop-color="#00D2FF" />
      <stop offset="0.859375" stop-color="#2C7AFF" />
    </linearGradient>
  </defs>
</svg>
